<?xml version="1.0" encoding="UTF-8" standalone="no"?><!DOCTYPE svg PUBLIC "-//W3C//DTD SVG 1.1//EN" "http://www.w3.org/Graphics/SVG/1.1/DTD/svg11.dtd"><svg width="2296" height="1205" viewBox="0 0 2296 1205" version="1.1" xmlns="http://www.w3.org/2000/svg" xmlns:xlink="http://www.w3.org/1999/xlink" xml:space="preserve" xmlns:serif="http://www.serif.com/" style="fill-rule:evenodd;clip-rule:evenodd;stroke-linejoin:round;stroke-miterlimit:2;"><rect id="logo" x="3.631" y="3.441" width="2291.67" height="1200" style="fill:none;"/><clipPath id="_clip1"><rect x="3.631" y="3.441" width="2291.67" height="1200"/></clipPath><g clip-path="url(#_clip1)"><g><path d="M1000.14,894.4l-74.056,74.056l0,234.985l-205.79,0l0,-1093.75l205.79,0l0,605.977l39.877,-51.269l197.245,-231.425l247.091,-0l-278.422,321.147l302.632,449.32l-236.409,0l-197.958,-309.041Z" style="fill:#9f9f9f;fill-rule:nonzero;"/><path d="M1512.84,1203.44l-0,-1036.78l363.159,0c125.8,0 221.218,24.092 286.255,72.276c65.036,48.184 97.554,118.798 97.554,211.843c0,50.795 -13.054,95.537 -39.164,134.226c-26.109,38.69 -62.425,67.054 -108.948,85.094c53.169,13.292 95.063,40.113 125.682,80.464c30.619,40.351 45.929,89.722 45.929,148.112c-0,99.691 -31.806,175.171 -95.418,226.441c-63.613,51.269 -154.284,77.379 -272.014,78.328l-403.035,0Zm213.623,-451.457l-0,279.847l183.004,-0c50.32,-0 89.603,-11.987 117.848,-35.96c28.246,-23.974 42.369,-57.085 42.369,-99.335c-0,-94.944 -49.133,-143.127 -147.4,-144.552l-195.821,0Zm-0,-150.96l158.081,0c107.761,-1.899 161.641,-44.861 161.641,-128.886c0,-46.997 -13.648,-80.821 -40.944,-101.471c-27.296,-20.65 -70.377,-30.975 -129.242,-30.975l-149.536,-0l-0,261.332Z" style="fill:#9f9f9f;fill-rule:nonzero;"/></g><g><rect x="270.498" y="1070.01" width="133.434" height="133.434" style="fill:#47a3c4;"/><rect x="403.932" y="1070.01" width="133.434" height="133.434" style="fill:#0076b5;"/><rect x="403.932" y="270.208" width="133.434" height="133.434" style="fill:#71cdff;"/><rect x="403.932" y="136.774" width="133.434" height="133.434" style="fill:#0076b5;"/><rect x="403.932" y="3.341" width="133.434" height="133.434" style="fill:#278fc6;"/><rect x="270.498" y="270.208" width="133.434" height="133.434" style="fill:#47a3c4;"/><rect x="270.498" y="136.774" width="133.434" height="133.434" style="fill:#278fc6;"/><rect x="270.498" y="3.341" width="133.434" height="133.434" style="fill:#2a9edc;"/><rect x="137.064" y="136.774" width="133.434" height="133.434" style="fill:#71cdff;"/><rect x="137.064" y="270.208" width="133.434" height="133.434" style="fill:#0076b5;"/><rect x="3.631" y="270.208" width="133.434" height="133.434" style="fill:#2a9edc;"/><rect x="403.932" y="936.674" width="133.434" height="133.434" style="fill:#278fc6;"/><rect x="270.498" y="936.674" width="133.434" height="133.434" style="fill:#71cdff;"/><rect x="270.498" y="803.341" width="133.434" height="133.434" style="fill:#0076b5;"/><rect x="403.932" y="803.341" width="133.434" height="133.434" style="fill:#47a3c4;"/><rect x="270.498" y="670.007" width="133.434" height="133.434" style="fill:#2a9edc;"/><rect x="403.932" y="670.007" width="133.434" height="133.434" style="fill:#0076b5;"/><rect x="270.498" y="536.674" width="133.434" height="133.434" style="fill:#0076b5;"/><rect x="403.932" y="536.674" width="133.434" height="133.434" style="fill:#278fc6;"/><rect x="270.498" y="403.341" width="133.434" height="133.434" style="fill:#71cdff;"/><rect x="403.932" y="403.341" width="133.434" height="133.434" style="fill:#2a9edc;"/></g></g></svg>
