<?xml version="1.0" encoding="UTF-8" standalone="no"?><!DOCTYPE svg PUBLIC "-//W3C//DTD SVG 1.1//EN" "http://www.w3.org/Graphics/SVG/1.1/DTD/svg11.dtd"><svg width="534" height="1205" viewBox="0 0 534 1205" version="1.1" xmlns="http://www.w3.org/2000/svg" xmlns:xlink="http://www.w3.org/1999/xlink" xml:space="preserve" xmlns:serif="http://www.serif.com/" style="fill-rule:evenodd;clip-rule:evenodd;stroke-linejoin:round;stroke-miterlimit:2;"><rect id="logo-square" x="0" y="3.441" width="533.333" height="1200" style="fill:none;"/><clipPath id="_clip1"><rect x="0" y="3.441" width="533.333" height="1200"/></clipPath><g clip-path="url(#_clip1)"><g><rect x="266.868" y="1070.01" width="133.434" height="133.434" style="fill:#47a3c4;"/><rect x="400.302" y="1070.01" width="133.434" height="133.434" style="fill:#bfe9ff;"/><rect x="400.302" y="270.208" width="133.434" height="133.434" style="fill:#71cdff;"/><rect x="400.302" y="136.774" width="133.434" height="133.434" style="fill:#bfe9ff;"/><rect x="400.302" y="3.341" width="133.434" height="133.434" style="fill:#278fc6;"/><rect x="266.868" y="270.208" width="133.434" height="133.434" style="fill:#47a3c4;"/><rect x="266.868" y="136.774" width="133.434" height="133.434" style="fill:#278fc6;"/><rect x="266.868" y="3.341" width="133.434" height="133.434" style="fill:#2a9edc;"/><rect x="133.434" y="136.774" width="133.434" height="133.434" style="fill:#71cdff;"/><rect x="133.434" y="270.208" width="133.434" height="133.434" style="fill:#bfe9ff;"/><rect x="0" y="270.208" width="133.434" height="133.434" style="fill:#2a9edc;"/><rect x="400.302" y="936.674" width="133.434" height="133.434" style="fill:#278fc6;"/><rect x="266.868" y="936.674" width="133.434" height="133.434" style="fill:#71cdff;"/><rect x="266.868" y="803.341" width="133.434" height="133.434" style="fill:#bfe9ff;"/><rect x="400.302" y="803.341" width="133.434" height="133.434" style="fill:#47a3c4;"/><rect x="266.868" y="670.007" width="133.434" height="133.434" style="fill:#2a9edc;"/><rect x="400.302" y="670.007" width="133.434" height="133.434" style="fill:#bfe9ff;"/><rect x="266.868" y="536.674" width="133.434" height="133.434" style="fill:#bfe9ff;"/><rect x="400.302" y="536.674" width="133.434" height="133.434" style="fill:#278fc6;"/><rect x="266.868" y="403.341" width="133.434" height="133.434" style="fill:#71cdff;"/><rect x="400.302" y="403.341" width="133.434" height="133.434" style="fill:#2a9edc;"/></g></g></svg>
