<?xml version="1.0" encoding="UTF-8" standalone="no"?>
<!DOCTYPE svg PUBLIC "-//W3C//DTD SVG 1.1//EN" "http://www.w3.org/Graphics/SVG/1.1/DTD/svg11.dtd">
<svg width="100%" height="100%" viewBox="0 0 400 52" version="1.1" xmlns="http://www.w3.org/2000/svg" xmlns:xlink="http://www.w3.org/1999/xlink" xml:space="preserve" xmlns:serif="http://www.serif.com/" style="fill-rule:evenodd;clip-rule:evenodd;stroke-linejoin:round;stroke-miterlimit:2;">
    <g transform="matrix(1,0,0,1,-0.5,0)">
        <g id="logo-numericall" transform="matrix(1,0,0,0.65,0,0)">
            <rect x="0.5" y="0" width="400" height="80" style="fill:none;"/>
        </g>
        <g>
            <path d="M176.352,14.799L184.657,14.799L184.657,17.982C186.7,15.694 189.29,14.245 193.35,14.245C197.227,14.245 199.567,15.61 201.469,17.751L195.011,24.211C194.088,23.288 192.981,21.996 190.212,22.181C186.898,22.402 184.676,25.134 184.657,29.212L184.657,48.755L176.352,48.755L176.352,14.799Z" style="fill:rgb(29,29,27);"/>
            <path d="M147.029,34.597C147.049,38.999 149.633,42.111 154.78,42.111C158.101,42.111 160.524,41.1 162.346,38.79L167.698,43.772C164.579,47.514 159.531,49.756 154.756,49.62C150.351,49.493 147.034,48.38 143.707,45.249C140.57,42.296 138.909,39.159 138.909,31.592C139.26,20.714 143.886,14.245 153.772,14.245C162.531,14.245 168.62,19.966 168.62,30.485L168.62,34.545L147.029,34.545L147.029,34.597ZM160.147,28.824C160.316,24.58 157.733,21.627 153.772,21.627C149.675,21.627 147.213,24.395 147.029,28.824L160.147,28.824Z" style="fill:rgb(29,29,27);"/>
            <path d="M109.08,18.775C110.568,16.931 113.174,14.245 119.815,14.245C124.067,14.245 126.761,16.034 128.858,18.674C130.31,20.819 131.222,23.512 131.192,27.163L131.192,48.755L122.887,48.755L122.887,27.163C122.19,23.919 120.325,22.252 117.416,21.996C114.234,21.948 111.51,24.58 111.348,28.086L111.347,28.083L111.347,48.755L103.042,48.755L103.042,27.163C102.346,23.919 100.481,22.252 97.571,21.996C94.388,21.948 91.665,24.58 91.503,28.086L91.503,48.755L83.198,48.755L83.198,14.799L91.503,14.799L91.503,17.751C93.685,15.651 96.279,14.245 99.97,14.245C104.222,14.245 106.916,16.034 109.012,18.674C109.035,18.708 109.058,18.741 109.08,18.775Z" style="fill:rgb(29,29,27);"/>
            <path d="M65.226,14.799L73.53,14.799L73.53,48.755L65.226,48.755L65.226,45.618C63.614,48.202 60.366,49.678 56.602,49.678C49.405,49.678 45.241,43.772 45.241,38.051L45.241,14.799L53.546,14.799L53.546,35.468C53.649,39.528 56.233,41.742 59.37,41.742C62.935,41.742 65.091,39.159 65.226,35.099L65.226,14.799Z" style="fill:rgb(29,29,27);"/>
            <path d="M8.805,48.755L0.5,48.755L0.5,2.803L7.882,2.803L27.269,32.515L27.269,2.803L35.573,2.803L35.573,48.755L27.269,48.755L8.805,19.534L8.805,48.755Z" style="fill:rgb(29,29,27);"/>
            <path d="M214.583,48.755L206.278,48.755L206.278,14.799L214.583,14.799L214.583,48.755ZM214.583,9.078L206.278,9.078L206.278,2.01L214.583,2.01L214.583,9.078Z" style="fill:rgb(29,29,27);"/>
            <path d="M237.456,14.245C228.967,14.245 222.701,20.151 222.508,31.592C222.274,45.433 230.259,49.309 237.825,49.309C242.992,49.309 247.237,47.094 249.222,44.695L243.361,38.974C241.701,40.82 240.123,41.742 237.641,41.742C233.211,41.742 231.034,37.85 230.997,31.777C231.097,25.513 233.211,22.181 237.825,21.996C240.183,21.902 241.92,23.078 243.177,24.764L249.222,19.043C247.533,17.198 243.731,14.245 237.456,14.245Z" style="fill:rgb(29,29,27);"/>
            <path d="M293.72,2.434L293.72,48.755L285.416,48.755L285.416,32.146L264.769,32.146L264.769,48.755L256.464,48.755L256.464,2.434L293.72,2.434ZM300.963,2.434L309.267,2.434L309.267,40.451L333.05,40.451L333.05,48.755L300.963,48.755L300.963,2.434ZM340.292,2.434L348.596,2.434L348.596,40.451L372.379,40.451L372.379,48.755L340.292,48.755L340.292,2.434ZM285.416,10.739L264.769,10.739L264.769,23.842L285.416,23.842L285.416,10.739Z" style="fill:url(#_Linear1);"/>
        </g>
    </g>
    <defs>
        <linearGradient id="_Linear1" x1="0" y1="0" x2="1" y2="0" gradientUnits="userSpaceOnUse" gradientTransform="matrix(2.72333e-15,44.4754,-44.4754,2.72333e-15,261.262,4.27986)"><stop offset="0" style="stop-color:rgb(182,24,39);stop-opacity:1"/><stop offset="1" style="stop-color:rgb(201,67,42);stop-opacity:1"/></linearGradient>
    </defs>
</svg>
