<?xml version="1.0" standalone="no"?>
<!DOCTYPE svg PUBLIC "-//W3C//DTD SVG 20010904//EN"
 "http://www.w3.org/TR/2001/REC-SVG-20010904/DTD/svg10.dtd">
<svg version="1.0" xmlns="http://www.w3.org/2000/svg"
 width="700.000000pt" height="700.000000pt" viewBox="0 0 700.000000 700.000000"
 preserveAspectRatio="xMidYMid meet">
<metadata>
Created by potrace 1.14, written by Peter Selinger 2001-2017
</metadata>
<g transform="translate(0.000000,700.000000) scale(0.100000,-0.100000)"
fill="#000000" stroke="none">
<path d="M3215 6990 c-845 -76 -1603 -427 -2190 -1015 -552 -552 -892 -1243
-997 -2027 -26 -196 -32 -632 -10 -808 77 -621 258 -1111 590 -1600 946 -1393
2758 -1910 4302 -1228 409 181 760 426 1085 759 560 575 885 1269 976 2089 16
146 17 551 0 695 -64 578 -247 1094 -548 1555 -573 874 -1482 1440 -2513 1565
-158 19 -551 27 -695 15z m588 -1959 c82 -19 143 -84 172 -183 14 -49 15 -193
13 -1354 -3 -1445 2 -1343 -71 -1450 -84 -126 -283 -139 -396 -26 -92 92 -85
12 -91 1139 l-5 992 -80 -61 c-228 -172 -463 -307 -575 -329 -99 -21 -193 28
-242 124 -24 49 -27 137 -5 189 21 50 72 84 277 188 96 49 218 117 270 151
128 84 300 257 427 429 55 74 112 146 126 159 38 35 112 48 180 32z"/>
</g>
</svg>
