<?xml version="1.0" standalone="no"?>
<!DOCTYPE svg PUBLIC "-//W3C//DTD SVG 20010904//EN"
 "http://www.w3.org/TR/2001/REC-SVG-20010904/DTD/svg10.dtd">
<svg version="1.0" xmlns="http://www.w3.org/2000/svg"
 width="576.000000pt" height="576.000000pt" viewBox="0 0 576.000000 576.000000"
 preserveAspectRatio="xMidYMid meet">
<metadata>
Created by potrace 1.14, written by Peter Selinger 2001-2017
</metadata>
<g transform="translate(0.000000,576.000000) scale(0.100000,-0.100000)"
fill="#000000" stroke="none">
<path d="M2913 5742 l-32 -3 0 -309 c0 -171 -2 -313 -4 -317 -3 -5 -147 -8
-321 -8 l-316 1 0 -321 0 -320 -320 2 -320 1 0 -319 0 -319 640 0 640 0 0 -62
c0 -35 2 -895 3 -1913 l2 -1849 625 -1 c344 0 631 1 638 3 9 3 12 584 12 2868
l0 2864 -33 0 c-238 3 -1190 4 -1214 2z"/>
</g>
</svg>
