<?xml version="1.0" standalone="no"?>
<!DOCTYPE svg PUBLIC "-//W3C//DTD SVG 20010904//EN"
 "http://www.w3.org/TR/2001/REC-SVG-20010904/DTD/svg10.dtd">
<svg version="1.0" xmlns="http://www.w3.org/2000/svg"
 width="512.000000pt" height="512.000000pt" viewBox="0 0 512.000000 512.000000"
 preserveAspectRatio="xMidYMid meet">
<metadata>
Created by potrace 1.14, written by Peter Selinger 2001-2017
</metadata>
<g transform="translate(0.000000,512.000000) scale(0.100000,-0.100000)"
fill="#000000" stroke="none">
<path d="M2560 4883 c1 -131 1 -259 0 -285 l0 -48 -285 0 -285 0 0 -285 0
-284 -192 0 c-106 0 -235 0 -285 0 l-93 -1 0 -284 0 -284 566 -1 c311 0 568
-2 571 -4 2 -3 4 -770 4 -1706 l0 -1701 569 0 570 0 0 2560 0 2560 -570 0
-570 0 0 -237z"/>
</g>
</svg>
