<svg xmlns="http://www.w3.org/2000/svg" viewBox="0 0 500 500"><g id="freepik--device-4--inject-520"><path d="M191.18,117.32h10.18l10.25,117.25H201.44a9.5,9.5,0,0,1-9.28-8.54l-8.77-100.17A7.7,7.7,0,0,1,191.18,117.32Z" style="fill:#1A76A6"></path><path d="M184.88,129.08a.91.91,0,0,0-.89-.82.74.74,0,0,0-.74.82l.69,7.86a.89.89,0,0,0,.88.81.73.73,0,0,0,.75-.81Z" style="fill:#1A76A6"></path><path d="M184.88,129.08a.91.91,0,0,0-.89-.82.74.74,0,0,0-.74.82l.69,7.86a.89.89,0,0,0,.88.81.73.73,0,0,0,.75-.81Z" style="fill:#fff;opacity:0.5"></path><path d="M203.52,234.57h41.92a7.7,7.7,0,0,0,7.79-8.54l-8.77-100.17a9.5,9.5,0,0,0-9.28-8.54H193.27a7.69,7.69,0,0,0-7.79,8.54L194.24,226A9.5,9.5,0,0,0,203.52,234.57Z" style="fill:#1A76A6"></path><path d="M203.52,234.57h41.92a7.7,7.7,0,0,0,7.79-8.54l-8.77-100.17a9.5,9.5,0,0,0-9.28-8.54H193.27a7.69,7.69,0,0,0-7.79,8.54L194.24,226A9.5,9.5,0,0,0,203.52,234.57Z" style="fill:#fff;opacity:0.5"></path><path d="M193.44,119.28h10.89a1.59,1.59,0,0,1,1.52,1.24l.07.34a3.86,3.86,0,0,0,3.7,3H220a3.1,3.1,0,0,0,3.17-3l0-.34a1.27,1.27,0,0,1,1.3-1.24h10.89a7.32,7.32,0,0,1,7.15,6.58L251.27,226a5.93,5.93,0,0,1-6,6.58H203.35A7.32,7.32,0,0,1,196.2,226l-8.77-100.17A5.94,5.94,0,0,1,193.44,119.28Z" style="fill:#fff"></path><path d="M217,120.39a.92.92,0,0,0,.9.83.75.75,0,0,0,.76-.83.92.92,0,0,0-.9-.83A.75.75,0,0,0,217,120.39Z" style="fill:#263238"></path><path d="M211.05,119.56h2.85a.93.93,0,0,1,.91.83.75.75,0,0,1-.76.83H211.2a.93.93,0,0,1-.91-.83A.75.75,0,0,1,211.05,119.56Z" style="fill:#263238"></path><polygon points="248.29 192.33 193.22 192.33 188.41 137.27 243.47 137.27 248.29 192.33" style="fill:#263238"></polygon><path d="M199.85,130.73a4,4,0,0,1-4.09,4.48,5,5,0,0,1-4.87-4.48,4,4,0,0,1,4.09-4.48A5,5,0,0,1,199.85,130.73Z" style="fill:#263238"></path><path d="M236.83,132.79h-8.6a2.29,2.29,0,0,1-2.24-2.06h0a1.86,1.86,0,0,1,1.88-2.06h8.6a2.29,2.29,0,0,1,2.24,2.06h0A1.86,1.86,0,0,1,236.83,132.79Z" style="fill:#263238"></path><path d="M218,200h-18.4a2.19,2.19,0,0,1-2.15-2h0a1.77,1.77,0,0,1,1.8-2h18.41a2.2,2.2,0,0,1,2.15,2h0A1.79,1.79,0,0,1,218,200Z" style="fill:#263238"></path><path d="M242,207.75H200.3a2.21,2.21,0,0,1-2.15-2h0a1.79,1.79,0,0,1,1.81-2h41.7a2.21,2.21,0,0,1,2.16,2h0A1.79,1.79,0,0,1,242,207.75Z" style="fill:#263238"></path><path d="M232.1,213.77H200.83a2.21,2.21,0,0,1-2.15-2h0a1.78,1.78,0,0,1,1.8-2h31.28a2.21,2.21,0,0,1,2.15,2h0A1.79,1.79,0,0,1,232.1,213.77Z" style="fill:#263238"></path><path d="M238.16,219.79h-36.8a2.19,2.19,0,0,1-2.15-2h0a1.78,1.78,0,0,1,1.8-2h36.81a2.21,2.21,0,0,1,2.15,2h0A1.79,1.79,0,0,1,238.16,219.79Z" style="fill:#263238"></path><path d="M213.15,225.81H201.88a2.21,2.21,0,0,1-2.15-2h0a1.79,1.79,0,0,1,1.81-2H212.8a2.19,2.19,0,0,1,2.15,2h0A1.78,1.78,0,0,1,213.15,225.81Z" style="fill:#263238"></path><polygon points="248.29 192.33 193.22 192.33 188.41 137.27 243.47 137.27 248.29 192.33" style="fill:#fff;opacity:0.9"></polygon><path d="M199.85,130.73a4,4,0,0,1-4.09,4.48,5,5,0,0,1-4.87-4.48,4,4,0,0,1,4.09-4.48A5,5,0,0,1,199.85,130.73Z" style="fill:#fff;opacity:0.9"></path><path d="M236.83,132.79h-8.6a2.29,2.29,0,0,1-2.24-2.06h0a1.86,1.86,0,0,1,1.88-2.06h8.6a2.29,2.29,0,0,1,2.24,2.06h0A1.86,1.86,0,0,1,236.83,132.79Z" style="fill:#fff;opacity:0.9"></path><path d="M218,200h-18.4a2.19,2.19,0,0,1-2.15-2h0a1.77,1.77,0,0,1,1.8-2h18.41a2.2,2.2,0,0,1,2.15,2h0A1.79,1.79,0,0,1,218,200Z" style="fill:#fff;opacity:0.9"></path><path d="M242,207.75H200.3a2.21,2.21,0,0,1-2.15-2h0a1.79,1.79,0,0,1,1.81-2h41.7a2.21,2.21,0,0,1,2.16,2h0A1.79,1.79,0,0,1,242,207.75Z" style="fill:#fff;opacity:0.9"></path><path d="M232.1,213.77H200.83a2.21,2.21,0,0,1-2.15-2h0a1.78,1.78,0,0,1,1.8-2h31.28a2.21,2.21,0,0,1,2.15,2h0A1.79,1.79,0,0,1,232.1,213.77Z" style="fill:#fff;opacity:0.9"></path><path d="M238.16,219.79h-36.8a2.19,2.19,0,0,1-2.15-2h0a1.78,1.78,0,0,1,1.8-2h36.81a2.21,2.21,0,0,1,2.15,2h0A1.79,1.79,0,0,1,238.16,219.79Z" style="fill:#fff;opacity:0.9"></path><path d="M213.15,225.81H201.88a2.21,2.21,0,0,1-2.15-2h0a1.79,1.79,0,0,1,1.81-2H212.8a2.19,2.19,0,0,1,2.15,2h0A1.78,1.78,0,0,1,213.15,225.81Z" style="fill:#fff;opacity:0.9"></path><path d="M229.68,181.9H212.76a4.82,4.82,0,0,1-4.71-4.33l-1.48-16.92a4.17,4.17,0,0,1,1.05-3.19,4.11,4.11,0,0,1,3.07-1.32h16.92a4.82,4.82,0,0,1,4.71,4.33l1.48,16.92a4.17,4.17,0,0,1-1.05,3.19A4.11,4.11,0,0,1,229.68,181.9Zm-19-23.73a2.05,2.05,0,0,0-2.1,2.3l1.48,16.92a2.76,2.76,0,0,0,2.69,2.48h16.92a2.05,2.05,0,0,0,2.1-2.3l-1.48-16.92a2.76,2.76,0,0,0-2.69-2.48Z" style="fill:#263238"></path><g style="opacity:0.5"><path d="M229.68,181.9H212.76a4.82,4.82,0,0,1-4.71-4.33l-1.48-16.92a4.17,4.17,0,0,1,1.05-3.19,4.11,4.11,0,0,1,3.07-1.32h16.92a4.82,4.82,0,0,1,4.71,4.33l1.48,16.92a4.17,4.17,0,0,1-1.05,3.19A4.11,4.11,0,0,1,229.68,181.9Zm-19-23.73a2.05,2.05,0,0,0-2.1,2.3l1.48,16.92a2.76,2.76,0,0,0,2.69,2.48h16.92a2.05,2.05,0,0,0,2.1-2.3l-1.48-16.92a2.76,2.76,0,0,0-2.69-2.48Z" style="fill:#fff"></path></g><path d="M216.68,176.07l-12.92-11.88a2.24,2.24,0,0,1-.13-3.15h0a2.24,2.24,0,0,1,3.15-.13l9.62,8.85,18.66-20.44a2.22,2.22,0,0,1,3.14-.15h0a2.24,2.24,0,0,1,.15,3.15Z" style="fill:#1A76A6"></path><g style="opacity:0.2"><path d="M216.68,176.07l-12.92-11.88a2.24,2.24,0,0,1-.13-3.15h0a2.24,2.24,0,0,1,3.15-.13l9.62,8.85,18.66-20.44a2.22,2.22,0,0,1,3.14-.15h0a2.24,2.24,0,0,1,.15,3.15Z"></path></g></g><g id="freepik--device-3--inject-520"><path d="M249.16,370a1.93,1.93,0,0,0-1.38,0h-34.3l-14.41,42.26h36.18L236,410h2.18l12.11-37.57A1.94,1.94,0,0,0,249.16,370Zm-15.73,19.92-1.24,3.86a5.82,5.82,0,0,1-5.54,4h-1.73a4.46,4.46,0,0,1-4.25-5.83l1.25-3.86a5.81,5.81,0,0,1,5.53-4h1.74A4.46,4.46,0,0,1,233.43,389.94Z" style="fill:#263238"></path><path d="M249.16,370a1.93,1.93,0,0,0-1.38,0h-34.3l-14.41,42.26h36.18L236,410h2.18l12.11-37.57A1.94,1.94,0,0,0,249.16,370Zm-15.73,19.92-1.24,3.86a5.82,5.82,0,0,1-5.54,4h-1.73a4.46,4.46,0,0,1-4.25-5.83l1.25-3.86a5.81,5.81,0,0,1,5.53-4h1.74A4.46,4.46,0,0,1,233.43,389.94Z" style="fill:#fff;opacity:0.30000000000000004"></path><path d="M277.49,410H241.81a1.93,1.93,0,0,1,1.93,1.93v.73a1.92,1.92,0,0,1-1.93,1.93h35.68a1.92,1.92,0,0,0,1.92-1.93v-.73A1.93,1.93,0,0,0,277.49,410Z" style="fill:#263238"></path><path d="M277.49,410H241.81a1.93,1.93,0,0,1,1.93,1.93v.73a1.92,1.92,0,0,1-1.93,1.93h35.68a1.92,1.92,0,0,0,1.92-1.93v-.73A1.93,1.93,0,0,0,277.49,410Z" style="fill:#fff;opacity:0.30000000000000004"></path><path d="M241.81,414.57H197l14-43.34a1.93,1.93,0,0,1,2.53-1.21h0a1.93,1.93,0,0,1,1.14,2.39L202.5,410h39.31a1.93,1.93,0,0,1,1.93,1.93v.73A1.92,1.92,0,0,1,241.81,414.57Z" style="fill:#263238"></path><g style="opacity:0.6000000000000001"><path d="M241.81,414.57H197l14-43.34a1.93,1.93,0,0,1,2.53-1.21h0a1.93,1.93,0,0,1,1.14,2.39L202.5,410h39.31a1.93,1.93,0,0,1,1.93,1.93v.73A1.92,1.92,0,0,1,241.81,414.57Z" style="fill:#fff"></path></g><path d="M229.19,384.11h-1.74c-.13,0-.25,0-.38,0a4.46,4.46,0,0,1,3.75,5.8l-1.24,3.86a5.8,5.8,0,0,1-5.16,4,4.07,4.07,0,0,0,.5,0h1.73a5.82,5.82,0,0,0,5.54-4l1.24-3.86A4.46,4.46,0,0,0,229.19,384.11Z" style="fill:#263238"></path><path d="M151.41,246.92H133.68a6.06,6.06,0,0,0-6.14,6.73l10,115a7.5,7.5,0,0,0,7.33,6.73h17.72Z" style="fill:#1A76A6"></path><path d="M151.41,246.92H133.68a6.06,6.06,0,0,0-6.14,6.73l10,115a7.5,7.5,0,0,0,7.33,6.73h17.72Z" style="fill:#fff;opacity:0.2"></path><path d="M308.27,375.33H149.5a7.48,7.48,0,0,1-7.32-6.73l-10.06-115a6.07,6.07,0,0,1,6.15-6.73H297a7.48,7.48,0,0,1,7.32,6.73l10.06,115A6.07,6.07,0,0,1,308.27,375.33Z" style="fill:#1A76A6"></path><path d="M308.27,375.33H149.5a7.48,7.48,0,0,1-7.32-6.73l-10.06-115a6.07,6.07,0,0,1,6.15-6.73H297a7.48,7.48,0,0,1,7.32,6.73l10.06,115A6.07,6.07,0,0,1,308.27,375.33Z" style="fill:#fff;opacity:0.5"></path><path d="M141.16,357l1,11.61a7.48,7.48,0,0,0,7.32,6.73H308.27a6.07,6.07,0,0,0,6.15-6.73l-1-11.61Z" style="fill:#1A76A6"></path><path d="M141.16,357l1,11.61a7.48,7.48,0,0,0,7.32,6.73H308.27a6.07,6.07,0,0,0,6.15-6.73l-1-11.61Z" style="fill:#fff;opacity:0.2"></path><polygon points="137.77 252.65 146.4 351.25 307.17 351.25 298.54 252.65 137.77 252.65" style="fill:#fff"></polygon><polygon points="175.64 268.06 145.57 268.06 144.63 257.24 174.69 257.24 175.64 268.06" style="fill:#263238"></polygon><polygon points="226.17 262.65 207.9 262.65 207.43 257.24 225.7 257.24 226.17 262.65" style="fill:#263238"></polygon><polygon points="191.5 346.8 161.56 346.8 160.29 332.31 190.23 332.31 191.5 346.8" style="fill:#263238"></polygon><polygon points="227.68 346.8 197.74 346.8 196.47 332.31 226.41 332.31 227.68 346.8" style="fill:#263238"></polygon><polygon points="263.86 346.8 233.92 346.8 232.65 332.31 262.59 332.31 263.86 346.8" style="fill:#263238"></polygon><polygon points="300.04 346.8 270.1 346.8 268.83 332.31 298.77 332.31 300.04 346.8" style="fill:#263238"></polygon><polygon points="248.34 262.65 230.07 262.65 229.6 257.24 247.87 257.24 248.34 262.65" style="fill:#263238"></polygon><polygon points="270.51 262.65 252.24 262.65 251.76 257.24 270.04 257.24 270.51 262.65" style="fill:#263238"></polygon><polygon points="292.68 262.65 274.41 262.65 273.93 257.24 292.2 257.24 292.68 262.65" style="fill:#263238"></polygon><polygon points="305.04 327.43 144.27 327.43 139.73 275.61 300.51 275.61 305.04 327.43" style="fill:#263238"></polygon><g style="opacity:0.9"><polygon points="175.64 268.06 145.57 268.06 144.63 257.24 174.69 257.24 175.64 268.06" style="fill:#fff"></polygon><polygon points="226.17 262.65 207.9 262.65 207.43 257.24 225.7 257.24 226.17 262.65" style="fill:#fff"></polygon><polygon points="191.5 346.8 161.56 346.8 160.29 332.31 190.23 332.31 191.5 346.8" style="fill:#fff"></polygon><polygon points="227.68 346.8 197.74 346.8 196.47 332.31 226.41 332.31 227.68 346.8" style="fill:#fff"></polygon><polygon points="263.86 346.8 233.92 346.8 232.65 332.31 262.59 332.31 263.86 346.8" style="fill:#fff"></polygon><polygon points="300.04 346.8 270.1 346.8 268.83 332.31 298.77 332.31 300.04 346.8" style="fill:#fff"></polygon><polygon points="248.34 262.65 230.07 262.65 229.6 257.24 247.87 257.24 248.34 262.65" style="fill:#fff"></polygon><polygon points="270.51 262.65 252.24 262.65 251.76 257.24 270.04 257.24 270.51 262.65" style="fill:#fff"></polygon><polygon points="292.68 262.65 274.41 262.65 273.93 257.24 292.2 257.24 292.68 262.65" style="fill:#fff"></polygon><polygon points="305.04 327.43 144.27 327.43 139.73 275.61 300.51 275.61 305.04 327.43" style="fill:#fff"></polygon></g><path d="M241.15,314.17h-18.8a5.36,5.36,0,0,1-5.23-4.81l-1.65-18.8a4.61,4.61,0,0,1,1.17-3.54,4.56,4.56,0,0,1,3.41-1.47h18.8a5.36,5.36,0,0,1,5.23,4.81l1.65,18.8a4.61,4.61,0,0,1-1.17,3.54A4.56,4.56,0,0,1,241.15,314.17Zm-21.1-26.37a2.28,2.28,0,0,0-2.33,2.56l1.64,18.8a3.07,3.07,0,0,0,3,2.76h18.8a2.33,2.33,0,0,0,1.75-.74,2.36,2.36,0,0,0,.59-1.82l-1.65-18.8a3.07,3.07,0,0,0-3-2.76Z" style="fill:#263238"></path><g style="opacity:0.5"><path d="M241.15,314.17h-18.8a5.36,5.36,0,0,1-5.23-4.81l-1.65-18.8a4.61,4.61,0,0,1,1.17-3.54,4.56,4.56,0,0,1,3.41-1.47h18.8a5.36,5.36,0,0,1,5.23,4.81l1.65,18.8a4.61,4.61,0,0,1-1.17,3.54A4.56,4.56,0,0,1,241.15,314.17Zm-21.1-26.37a2.28,2.28,0,0,0-2.33,2.56l1.64,18.8a3.07,3.07,0,0,0,3,2.76h18.8a2.33,2.33,0,0,0,1.75-.74,2.36,2.36,0,0,0,.59-1.82l-1.65-18.8a3.07,3.07,0,0,0-3-2.76Z" style="fill:#fff"></path></g><path d="M226.7,307.69l-14.35-13.2a2.47,2.47,0,0,1-.14-3.49h0a2.47,2.47,0,0,1,3.49-.15l10.7,9.83L247.12,278a2.48,2.48,0,0,1,3.5-.16h0a2.48,2.48,0,0,1,.16,3.5Z" style="fill:#1A76A6"></path><g style="opacity:0.2"><path d="M226.7,307.69l-14.35-13.2a2.47,2.47,0,0,1-.14-3.49h0a2.47,2.47,0,0,1,3.49-.15l10.7,9.83L247.12,278a2.48,2.48,0,0,1,3.5-.16h0a2.48,2.48,0,0,1,.16,3.5Z"></path></g></g><g id="freepik--device-2--inject-520"><path d="M86.72,138.75H78.09a8,8,0,0,0-8.1,8.87l9.63,110.07a9.88,9.88,0,0,0,9.65,8.87H97.9Z" style="fill:#1A76A6"></path><path d="M86.72,138.75H78.09a8,8,0,0,0-8.1,8.87l9.63,110.07a9.88,9.88,0,0,0,9.65,8.87H97.9Z" style="fill:#fff;opacity:0.2"></path><path d="M92.71,266.56h75.62a8,8,0,0,0,8.09-8.87L166.8,147.62a9.88,9.88,0,0,0-9.65-8.87H81.53a8,8,0,0,0-8.1,8.87l9.63,110.07A9.88,9.88,0,0,0,92.71,266.56Z" style="fill:#1A76A6"></path><path d="M92.71,266.56h75.62a8,8,0,0,0,8.09-8.87L166.8,147.62a9.88,9.88,0,0,0-9.65-8.87H81.53a8,8,0,0,0-8.1,8.87l9.63,110.07A9.88,9.88,0,0,0,92.71,266.56Z" style="fill:#fff;opacity:0.5"></path><polygon points="173.33 257.69 163.7 147.62 76.53 147.62 86.16 257.69 173.33 257.69" style="fill:#fff"></polygon><path d="M130.35,264.66a3.11,3.11,0,0,1-3-2.8,2.51,2.51,0,0,1,2.54-2.79,3.1,3.1,0,0,1,3,2.79A2.53,2.53,0,0,1,130.35,264.66Zm-.42-4.9a1.9,1.9,0,0,0-1.93,2.1,2.36,2.36,0,0,0,2.29,2.11,1.9,1.9,0,0,0,1.92-2.11A2.33,2.33,0,0,0,129.93,259.76Z" style="fill:#1A76A6"></path><polygon points="159.92 158.32 153.5 158.32 152.94 151.9 159.36 151.9 159.92 158.32" style="fill:#263238"></polygon><polygon points="100.76 158.32 82.41 158.32 81.85 151.9 100.2 151.9 100.76 158.32" style="fill:#263238"></polygon><polygon points="164.14 206.48 86.63 206.48 83.1 166.12 160.6 166.12 164.14 206.48" style="fill:#263238"></polygon><polygon points="135.44 250.71 90.5 250.71 87.11 211.98 132.06 211.98 135.44 250.71" style="fill:#263238"></polygon><polygon points="147.73 220.81 137.41 220.81 136.64 211.98 146.96 211.98 147.73 220.81" style="fill:#263238"></polygon><path d="M162.13,215h-11.3a1.66,1.66,0,0,1-1.62-1.49h0a1.35,1.35,0,0,1,1.36-1.49h11.3a1.67,1.67,0,0,1,1.62,1.49h0A1.35,1.35,0,0,1,162.13,215Z" style="fill:#263238"></path><path d="M163.9,220.81H151.34a1.67,1.67,0,0,1-1.62-1.49h0a1.35,1.35,0,0,1,1.36-1.49h12.56a1.66,1.66,0,0,1,1.62,1.49h0A1.35,1.35,0,0,1,163.9,220.81Z" style="fill:#263238"></path><path d="M163.15,226.66H139.42a1.67,1.67,0,0,1-1.63-1.49h0a1.34,1.34,0,0,1,1.36-1.49h23.74a1.65,1.65,0,0,1,1.62,1.49h0A1.35,1.35,0,0,1,163.15,226.66Z" style="fill:#263238"></path><path d="M164.92,232.5h-25a1.65,1.65,0,0,1-1.62-1.49h0a1.34,1.34,0,0,1,1.36-1.49h25a1.65,1.65,0,0,1,1.62,1.49h0A1.34,1.34,0,0,1,164.92,232.5Z" style="fill:#263238"></path><path d="M162.22,238.35H140.44a1.66,1.66,0,0,1-1.62-1.49h0a1.34,1.34,0,0,1,1.36-1.49H162a1.65,1.65,0,0,1,1.62,1.49h0A1.34,1.34,0,0,1,162.22,238.35Z" style="fill:#263238"></path><path d="M166,244.2H141a1.66,1.66,0,0,1-1.62-1.49h0a1.35,1.35,0,0,1,1.36-1.49h25a1.67,1.67,0,0,1,1.62,1.49h0A1.35,1.35,0,0,1,166,244.2Z" style="fill:#263238"></path><path d="M158.69,250.05H141.46a1.66,1.66,0,0,1-1.62-1.49h0a1.34,1.34,0,0,1,1.36-1.49h17.23a1.65,1.65,0,0,1,1.62,1.49h0A1.35,1.35,0,0,1,158.69,250.05Z" style="fill:#263238"></path><polygon points="159.92 158.32 153.5 158.32 152.94 151.9 159.36 151.9 159.92 158.32" style="fill:#fff;opacity:0.9"></polygon><polygon points="100.76 158.32 82.41 158.32 81.85 151.9 100.2 151.9 100.76 158.32" style="fill:#fff;opacity:0.9"></polygon><polygon points="164.14 206.48 86.63 206.48 83.1 166.12 160.6 166.12 164.14 206.48" style="fill:#fff;opacity:0.9"></polygon><polygon points="135.44 250.71 90.5 250.71 87.11 211.98 132.06 211.98 135.44 250.71" style="fill:#fff;opacity:0.9"></polygon><polygon points="147.73 220.81 137.41 220.81 136.64 211.98 146.96 211.98 147.73 220.81" style="fill:#fff;opacity:0.9"></polygon><path d="M162.13,215h-11.3a1.66,1.66,0,0,1-1.62-1.49h0a1.35,1.35,0,0,1,1.36-1.49h11.3a1.67,1.67,0,0,1,1.62,1.49h0A1.35,1.35,0,0,1,162.13,215Z" style="fill:#fff;opacity:0.9"></path><path d="M163.9,220.81H151.34a1.67,1.67,0,0,1-1.62-1.49h0a1.35,1.35,0,0,1,1.36-1.49h12.56a1.66,1.66,0,0,1,1.62,1.49h0A1.35,1.35,0,0,1,163.9,220.81Z" style="fill:#fff;opacity:0.9"></path><path d="M163.15,226.66H139.42a1.67,1.67,0,0,1-1.63-1.49h0a1.34,1.34,0,0,1,1.36-1.49h23.74a1.65,1.65,0,0,1,1.62,1.49h0A1.35,1.35,0,0,1,163.15,226.66Z" style="fill:#fff;opacity:0.9"></path><path d="M164.92,232.5h-25a1.65,1.65,0,0,1-1.62-1.49h0a1.34,1.34,0,0,1,1.36-1.49h25a1.65,1.65,0,0,1,1.62,1.49h0A1.34,1.34,0,0,1,164.92,232.5Z" style="fill:#fff;opacity:0.9"></path><path d="M162.22,238.35H140.44a1.66,1.66,0,0,1-1.62-1.49h0a1.34,1.34,0,0,1,1.36-1.49H162a1.65,1.65,0,0,1,1.62,1.49h0A1.34,1.34,0,0,1,162.22,238.35Z" style="fill:#fff;opacity:0.9"></path><path d="M166,244.2H141a1.66,1.66,0,0,1-1.62-1.49h0a1.35,1.35,0,0,1,1.36-1.49h25a1.67,1.67,0,0,1,1.62,1.49h0A1.35,1.35,0,0,1,166,244.2Z" style="fill:#fff;opacity:0.9"></path><path d="M158.69,250.05H141.46a1.66,1.66,0,0,1-1.62-1.49h0a1.34,1.34,0,0,1,1.36-1.49h17.23a1.65,1.65,0,0,1,1.62,1.49h0A1.35,1.35,0,0,1,158.69,250.05Z" style="fill:#fff;opacity:0.9"></path><path d="M139.66,206.78H122.74a4.82,4.82,0,0,1-4.71-4.33l-1.48-16.92a4.08,4.08,0,0,1,4.12-4.51h16.91a4.83,4.83,0,0,1,4.72,4.33l1.48,16.92a4.14,4.14,0,0,1-1.06,3.19A4.09,4.09,0,0,1,139.66,206.78Zm-19-23.73a2,2,0,0,0-2.1,2.3l1.48,16.92a2.76,2.76,0,0,0,2.69,2.48h16.92a2.08,2.08,0,0,0,1.57-.66,2.13,2.13,0,0,0,.53-1.64l-1.48-16.92a2.76,2.76,0,0,0-2.7-2.48Z" style="fill:#263238"></path><g style="opacity:0.5"><path d="M139.66,206.78H122.74a4.82,4.82,0,0,1-4.71-4.33l-1.48-16.92a4.08,4.08,0,0,1,4.12-4.51h16.91a4.83,4.83,0,0,1,4.72,4.33l1.48,16.92a4.14,4.14,0,0,1-1.06,3.19A4.09,4.09,0,0,1,139.66,206.78Zm-19-23.73a2,2,0,0,0-2.1,2.3l1.48,16.92a2.76,2.76,0,0,0,2.69,2.48h16.92a2.08,2.08,0,0,0,1.57-.66,2.13,2.13,0,0,0,.53-1.64l-1.48-16.92a2.76,2.76,0,0,0-2.7-2.48Z" style="fill:#fff"></path></g><path d="M126.65,201l-12.91-11.88a2.22,2.22,0,0,1-.13-3.15h0a2.23,2.23,0,0,1,3.14-.13l9.63,8.85L145,174.2a2.23,2.23,0,0,1,3.15-.15h0a2.23,2.23,0,0,1,.14,3.15Z" style="fill:#1A76A6"></path><g style="opacity:0.2"><path d="M126.65,201l-12.91-11.88a2.22,2.22,0,0,1-.13-3.15h0a2.23,2.23,0,0,1,3.14-.13l9.63,8.85L145,174.2a2.23,2.23,0,0,1,3.15-.15h0a2.23,2.23,0,0,1,.14,3.15Z"></path></g></g><g id="freepik--device-1--inject-520"><path d="M81.59,323.79H75.32a4.17,4.17,0,0,0-4.22,4.62l7,79.94a5.14,5.14,0,0,0,5,4.62H89.4Z" style="fill:#1A76A6"></path><path d="M81.59,323.79H75.32a4.17,4.17,0,0,0-4.22,4.62l7,79.94a5.14,5.14,0,0,0,5,4.62H89.4Z" style="fill:#fff;opacity:0.2"></path><path d="M183.63,413H85.85a5.14,5.14,0,0,1-5-4.62l-7-79.94a4.17,4.17,0,0,1,4.22-4.62h97.78a5.14,5.14,0,0,1,5,4.62l7,79.94A4.16,4.16,0,0,1,183.63,413Z" style="fill:#1A76A6"></path><path d="M183.63,413H85.85a5.14,5.14,0,0,1-5-4.62l-7-79.94a4.17,4.17,0,0,1,4.22-4.62h97.78a5.14,5.14,0,0,1,5,4.62l7,79.94A4.16,4.16,0,0,1,183.63,413Z" style="fill:#fff;opacity:0.5"></path><path d="M141,406.34H248a0,0,0,0,1,0,0v2.16a6,6,0,0,1-6,6H141a0,0,0,0,1,0,0v-8.15A0,0,0,0,1,141,406.34Z" style="fill:#1A76A6"></path><path d="M141,406.34H248a0,0,0,0,1,0,0v2.16a6,6,0,0,1-6,6H141a0,0,0,0,1,0,0v-8.15A0,0,0,0,1,141,406.34Z" style="fill:#fff;opacity:0.2"></path><path d="M203.34,410.42h-8.55a4.08,4.08,0,0,1-4.07-4.08h16.7A4.08,4.08,0,0,1,203.34,410.42Z" style="fill:#fff;opacity:0.4"></path><polygon points="181.69 399.46 175.54 329.14 79.27 329.14 85.42 399.46 181.69 399.46" style="fill:#fff"></polygon><path d="M131.67,326.51a1.07,1.07,0,0,1-1.08,1.19,1.33,1.33,0,0,1-1.3-1.19,1.07,1.07,0,0,1,1.09-1.19A1.31,1.31,0,0,1,131.67,326.51Z" style="fill:#263238"></path><path d="M81.15,406.34h67.08a0,0,0,0,1,0,0v2.16a6,6,0,0,1-6,6H87.15a6,6,0,0,1-6-6v-2.16A0,0,0,0,1,81.15,406.34Z" style="fill:#1A76A6"></path><path d="M91.63,411.18H87a1,1,0,0,1-1-1h0a1,1,0,0,1,1-1h4.65a1,1,0,0,1,1,1h0A1,1,0,0,1,91.63,411.18Z" style="fill:#fff;opacity:0.4"></path><path d="M101.63,411.18H97a1,1,0,0,1-1-1h0a1,1,0,0,1,1-1h4.65a1,1,0,0,1,1,1h0A1,1,0,0,1,101.63,411.18Z" style="fill:#fff;opacity:0.4"></path><polygon points="100.84 340.27 84.6 340.27 84.05 333.96 100.29 333.96 100.84 340.27" style="fill:#263238"></polygon><polygon points="135.85 336.25 125.68 336.25 125.48 333.96 135.65 333.96 135.85 336.25" style="fill:#263238"></polygon><polygon points="148.08 336.25 137.91 336.25 137.71 333.96 147.88 333.96 148.08 336.25" style="fill:#263238"></polygon><polygon points="160.31 336.25 150.14 336.25 149.94 333.96 160.11 333.96 160.31 336.25" style="fill:#263238"></polygon><polygon points="172.54 336.25 162.37 336.25 162.17 333.96 172.34 333.96 172.54 336.25" style="fill:#263238"></polygon><polygon points="174.39 357.47 86.11 357.47 84.9 343.71 173.19 343.71 174.39 357.47" style="fill:#263238"></polygon><polygon points="143.3 386.51 88.65 386.51 86.32 359.95 140.98 359.95 143.3 386.51" style="fill:#263238"></polygon><path d="M128.2,391.86H90.36A1.37,1.37,0,0,1,89,390.62h0a1.12,1.12,0,0,1,1.13-1.24H128a1.39,1.39,0,0,1,1.35,1.24h0A1.12,1.12,0,0,1,128.2,391.86Z" style="fill:#263238"></path><path d="M124.53,395.88H90.71a1.38,1.38,0,0,1-1.35-1.24h0a1.13,1.13,0,0,1,1.13-1.25h33.83a1.39,1.39,0,0,1,1.35,1.25h0A1.12,1.12,0,0,1,124.53,395.88Z" style="fill:#263238"></path><path d="M172.4,377H150.21a1.39,1.39,0,0,1-1.36-1.24h0a1.13,1.13,0,0,1,1.14-1.25h22.19a1.38,1.38,0,0,1,1.35,1.25h0A1.11,1.11,0,0,1,172.4,377Z" style="fill:#263238"></path><path d="M168.74,381H150.56a1.37,1.37,0,0,1-1.35-1.24h0a1.11,1.11,0,0,1,1.13-1.24h18.18a1.37,1.37,0,0,1,1.35,1.24h0A1.11,1.11,0,0,1,168.74,381Z" style="fill:#263238"></path><polygon points="174.13 371.99 148.15 371.99 147.09 359.95 173.08 359.95 174.13 371.99" style="fill:#263238"></polygon><polygon points="176.25 396.17 150.26 396.17 149.21 384.13 175.2 384.13 176.25 396.17" style="fill:#263238"></polygon><g style="opacity:0.9"><polygon points="100.84 340.27 84.6 340.27 84.05 333.96 100.29 333.96 100.84 340.27" style="fill:#fff"></polygon><polygon points="135.85 336.25 125.68 336.25 125.48 333.96 135.65 333.96 135.85 336.25" style="fill:#fff"></polygon><polygon points="148.08 336.25 137.91 336.25 137.71 333.96 147.88 333.96 148.08 336.25" style="fill:#fff"></polygon><polygon points="160.31 336.25 150.14 336.25 149.94 333.96 160.11 333.96 160.31 336.25" style="fill:#fff"></polygon><polygon points="172.54 336.25 162.37 336.25 162.17 333.96 172.34 333.96 172.54 336.25" style="fill:#fff"></polygon><polygon points="174.39 357.47 86.11 357.47 84.9 343.71 173.19 343.71 174.39 357.47" style="fill:#fff"></polygon><polygon points="143.3 386.51 88.65 386.51 86.32 359.95 140.98 359.95 143.3 386.51" style="fill:#fff"></polygon><path d="M128.2,391.86H90.36A1.37,1.37,0,0,1,89,390.62h0a1.12,1.12,0,0,1,1.13-1.24H128a1.39,1.39,0,0,1,1.35,1.24h0A1.12,1.12,0,0,1,128.2,391.86Z" style="fill:#fff"></path><path d="M124.53,395.88H90.71a1.38,1.38,0,0,1-1.35-1.24h0a1.13,1.13,0,0,1,1.13-1.25h33.83a1.39,1.39,0,0,1,1.35,1.25h0A1.12,1.12,0,0,1,124.53,395.88Z" style="fill:#fff"></path><path d="M172.4,377H150.21a1.39,1.39,0,0,1-1.36-1.24h0a1.13,1.13,0,0,1,1.14-1.25h22.19a1.38,1.38,0,0,1,1.35,1.25h0A1.11,1.11,0,0,1,172.4,377Z" style="fill:#fff"></path><path d="M168.74,381H150.56a1.37,1.37,0,0,1-1.35-1.24h0a1.11,1.11,0,0,1,1.13-1.24h18.18a1.37,1.37,0,0,1,1.35,1.24h0A1.11,1.11,0,0,1,168.74,381Z" style="fill:#fff"></path><polygon points="174.13 371.99 148.15 371.99 147.09 359.95 173.08 359.95 174.13 371.99" style="fill:#fff"></polygon><polygon points="176.25 396.17 150.26 396.17 149.21 384.13 175.2 384.13 176.25 396.17" style="fill:#fff"></polygon></g><path d="M145.5,376.09H126.7a5.36,5.36,0,0,1-5.23-4.81l-1.65-18.8a4.54,4.54,0,0,1,4.58-5h18.8a5.36,5.36,0,0,1,5.23,4.81l1.65,18.8a4.54,4.54,0,0,1-4.58,5Zm-21.1-26.37a2.37,2.37,0,0,0-1.75.74,2.32,2.32,0,0,0-.58,1.82l1.64,18.8a3.07,3.07,0,0,0,3,2.76h18.8a2.29,2.29,0,0,0,2.34-2.56l-1.65-18.8a3.07,3.07,0,0,0-3-2.76Z" style="fill:#263238"></path><g style="opacity:0.5"><path d="M145.5,376.09H126.7a5.36,5.36,0,0,1-5.23-4.81l-1.65-18.8a4.54,4.54,0,0,1,4.58-5h18.8a5.36,5.36,0,0,1,5.23,4.81l1.65,18.8a4.54,4.54,0,0,1-4.58,5Zm-21.1-26.37a2.37,2.37,0,0,0-1.75.74,2.32,2.32,0,0,0-.58,1.82l1.64,18.8a3.07,3.07,0,0,0,3,2.76h18.8a2.29,2.29,0,0,0,2.34-2.56l-1.65-18.8a3.07,3.07,0,0,0-3-2.76Z" style="fill:#fff"></path></g><path d="M131.05,369.61,116.7,356.42a2.49,2.49,0,0,1-.15-3.5h0a2.47,2.47,0,0,1,3.49-.15l10.7,9.84,20.72-22.72a2.48,2.48,0,0,1,3.5-.16h0a2.48,2.48,0,0,1,.16,3.5Z" style="fill:#1A76A6"></path><g style="opacity:0.2"><path d="M131.05,369.61,116.7,356.42a2.49,2.49,0,0,1-.15-3.5h0a2.47,2.47,0,0,1,3.49-.15l10.7,9.84,20.72-22.72a2.48,2.48,0,0,1,3.5-.16h0a2.48,2.48,0,0,1,.16,3.5Z"></path></g></g></svg>
